<svg xmlns="http://www.w3.org/2000/svg" width="828" height="222" viewBox="0 0 828 222"><g fill="none"><path fill="#1D4A8B" d="M157.669921,105.700175 C136.32066,105.65188 119.070194,88.0939762 119.109941,66.4864865 C119.149827,44.862921 136.488348,27.3609003 157.821529,27.4006394 C179.163133,27.4489348 196.429679,45.0068383 196.381541,66.638059 C196.333201,88.2539693 179.011525,105.739914 157.669921,105.700175 Z"/><path fill="#1D4A8B" d="M268.570916 5.20989344C264.792184 2.20600378 259.830445-5.85122228e-15 253.397795-5.85122228e-15L15.735085.00973481883C15.735085.00973481883-3.85612752-1.07653415.682179246 19.7003693L41.0476116 204.529149C41.0476116 204.529149 45.5859184 225.322128 64.8256744 221.096473L109.186532 207.995411 109.377957 205.711107C112.094662 170.731562 109.051003 160.945956 105.271505 143.691197 98.0723894 110.772424 54.6066358 62.0931831 50.7076889 58.5947693 46.9121116 55.1836245 45.5376792 47.1472245 59.4803193 54.1448176 116.984426 83.021659 156.335305 135.727521 160.03517 135.615756 165.715901 135.439687 236.043959 38.8957141 264.096928 9.34751413 265.662786 7.68634172 267.16509 6.31989344 268.570916 5.20989344ZM315.235001 126.51299 279.208027 21.350059C279.208027 21.350059 278.241713 17.8271486 275.772329 13.6573762 240.584563 83.8729141 219.235302 130.283162 215.520124 176.590831L302.211201 151.004183C302.211201 151.004183 321.4433 146.770873 315.235001 126.51299"/><path fill="#FFD400" d="M157.669921,105.700175 C179.011525,105.739914 196.333201,88.2539693 196.381541,66.638059 C196.429679,45.0068383 179.163133,27.4489348 157.821529,27.4006394 C136.488348,27.3609003 119.149827,44.862921 119.109941,66.4864865 C119.070194,88.0939762 136.32066,105.65188 157.669921,105.700175 Z"/><path fill="#FFD400" d="M264.096928,9.34751413 C236.043959,38.8957141 165.715901,135.439687 160.03517,135.615756 C156.335305,135.727521 116.984426,83.021659 59.4803193,54.1448176 C45.5376792,47.1472245 46.9121116,55.1836245 50.7076889,58.5947693 C54.6066358,62.0931831 98.0723894,110.772424 105.271505,143.691197 C109.051003,160.945956 112.094662,170.731562 109.377957,205.711107 L109.186532,207.995411 L215.520124,176.590831 C219.235302,130.283162 240.584563,83.8729141 275.772329,13.6573762 C273.47293,9.0887693 268.570916,5.20989344 268.570916,5.20989344 C267.16509,6.31989344 265.662786,7.68634172 264.096928,9.34751413 Z"/><g fill="#1D4A8B" transform="translate(645.933 139.211)"><polygon points="0 .684 3.435 .684 3.435 25.789 0 25.789"/><polygon points="8.063 .684 12.079 .684 24.759 21.021 24.759 .684 27.989 .684 27.989 25.789 24.178 25.789 11.31 5.469 11.31 25.789 8.063 25.789"/><path d="M42.0847969 22.8833008C43.2355131 22.8833008 44.1811511 22.7636719 44.921711 22.5244141 46.2433256 22.0800781 47.3256823 21.2255859 48.1687813 19.9609375 48.8409818 18.9469401 49.325194 17.648112 49.621418 16.0644531 49.7923164 15.1188151 49.8777657 14.2415365 49.8777657 13.4326172 49.8777657 10.3222656 49.259683 7.90690104 48.0235176 6.18652344 46.7873522 4.46614583 44.7963854 3.60595703 42.0506172 3.60595703L36.0179024 3.60595703 36.0179024 22.8833008 42.0847969 22.8833008ZM32.5999336.68359375 42.7683907.68359375C46.2205391.68359375 48.8979479 1.90836589 50.8006172 4.35791016 52.4982084 6.56819661 53.3470039 9.39941406 53.3470039 12.8515625 53.3470039 15.5175781 52.8457019 17.9272461 51.8430977 20.0805664 50.0771472 23.8859049 47.0408516 25.7885742 42.734211 25.7885742L32.5999336 25.7885742 32.5999336.68359375ZM67.6645489 0C72.096515 0 75.377765 1.42415365 77.5082989 4.27246094 79.1717103 6.49414062 80.0034161 9.3367513 80.0034161 12.800293 80.0034161 16.5486654 79.0520814 19.6647135 77.1494122 22.1484375 74.9163392 25.0651042 71.7319317 26.5234375 67.5961895 26.5234375 63.7338848 26.5234375 60.6975892 25.2473958 58.4873028 22.6953125 56.5162741 20.234375 55.5307598 17.1240234 55.5307598 13.3642578 55.5307598 9.96907552 56.3738588 7.06380208 58.0600567 4.6484375 60.2247702 1.54947917 63.4262676 0 67.6645489 0ZM68.0063457 23.4814453C71.002765 23.4814453 73.1703269 22.4076335 74.5090313 20.2600098 75.8477357 18.1123861 76.5170879 15.6429036 76.5170879 12.8515625 76.5170879 9.90071615 75.7451967 7.52522786 74.2014141 5.72509766 72.6576316 3.92496745 70.5470359 3.02490234 67.869627 3.02490234 65.2719707 3.02490234 63.1528301 3.91642253 61.5122051 5.69946289 59.8715801 7.48250326 59.0512676 10.1114909 59.0512676 13.5864258 59.0512676 16.3663737 59.7547995 18.7105306 61.1618633 20.6188965 62.5689271 22.5272624 64.8504213 23.4814453 68.0063457 23.4814453Z"/><polygon points="83.161 .684 87.177 .684 99.858 21.021 99.858 .684 103.088 .684 103.088 25.789 99.277 25.789 86.408 5.469 86.408 25.789 83.161 25.789"/><polygon points="107.869 .684 126.173 .684 126.173 3.76 111.185 3.76 111.185 11.382 125.045 11.382 125.045 14.287 111.185 14.287 111.185 22.798 126.429 22.798 126.429 25.789 107.869 25.789"/><path d="M132.218746,17.6879883 C132.298499,19.1121419 132.634599,20.2685547 133.227047,21.1572266 C134.354977,22.820638 136.343095,23.6523438 139.191402,23.6523438 C140.467444,23.6523438 141.629553,23.4700521 142.677731,23.1054688 C144.705725,22.3990885 145.719723,21.1344401 145.719723,19.3115234 C145.719723,17.9443359 145.292477,16.9702148 144.437984,16.3891602 C143.572099,15.8194987 142.216305,15.3238932 140.370602,14.9023438 L136.969723,14.1333008 C134.748043,13.6319987 133.175777,13.0794271 132.252926,12.4755859 C130.657874,11.4274089 129.860348,9.86083984 129.860348,7.77587891 C129.860348,5.52001953 130.640784,3.66861979 132.201656,2.22167969 C133.762529,0.774739583 135.972815,0.0512695312 138.832516,0.0512695312 C141.464352,0.0512695312 143.700273,0.686442057 145.540279,1.95678711 C147.380286,3.22713216 148.300289,5.25797526 148.300289,8.04931641 L145.104488,8.04931641 C144.93359,6.70491536 144.569007,5.67382812 144.010738,4.95605469 C142.973955,3.64583333 141.213701,2.99072266 138.729977,2.99072266 C136.724768,2.99072266 135.283525,3.41227214 134.406246,4.25537109 C133.528968,5.09847005 133.090328,6.07828776 133.090328,7.19482422 C133.090328,8.42529297 133.603024,9.32535807 134.628414,9.89501953 C135.300615,10.2596029 136.821611,10.715332 139.191402,11.262207 L142.71191,12.0654297 C144.409501,12.4527995 145.719723,12.9825846 146.642574,13.6547852 C148.237626,14.8282878 149.035152,16.5315755 149.035152,18.7646484 C149.035152,21.5445964 148.024003,23.5327148 146.001705,24.7290039 C143.979407,25.925293 141.629553,26.5234375 138.952145,26.5234375 C135.8304,26.5234375 133.386552,25.7259115 131.620602,24.1308594 C129.854651,22.5472005 128.988766,20.3995768 129.022945,17.6879883 L132.218746,17.6879883 Z"/><polygon points="153.218 .684 156.653 .684 156.653 25.789 153.218 25.789"/><path d="M174.166824,15.5004883 L170.355789,4.40917969 L166.305496,15.5004883 L174.166824,15.5004883 Z M168.578445,0.68359375 L172.42366,0.68359375 L181.532547,25.7885742 L177.806961,25.7885742 L175.260574,18.269043 L165.331375,18.269043 L162.61409,25.7885742 L159.127762,25.7885742 L168.578445,0.68359375 Z"/></g><g fill="#1D4A8B" transform="translate(353.776 66.344)"><polygon points="0 62.656 12.936 62.656 12.936 38.72 32.736 38.72 32.736 62.656 45.76 62.656 45.76 5.28 32.736 5.28 32.736 27.368 12.936 27.368 12.936 5.28 0 5.28"/><path d="M74.276211 63.712C85.276211 63.712 95.484211 55.352 95.484211 40.832 95.484211 26.312 85.276211 17.952 74.276211 17.952 63.188211 17.952 52.980211 26.312 52.980211 40.832 52.980211 55.352 63.188211 63.712 74.276211 63.712ZM74.276211 53.24C68.908211 53.24 66.268211 48.4 66.268211 40.832 66.268211 33.264 68.908211 28.424 74.276211 28.424 79.556211 28.424 82.284211 33.264 82.284211 40.832 82.284211 48.4 79.556211 53.24 74.276211 53.24ZM101.648422 78.848 114.584422 78.848 114.584422 66.088 114.144422 59.136C117.224422 62.04 120.744422 63.712 124.528422 63.712 133.944422 63.712 142.920422 55.088 142.920422 40.128 142.920422 26.664 136.408422 17.952 125.848422 17.952 121.272422 17.952 116.872422 20.24 113.440422 23.32L113.088422 23.32 112.208422 19.008 101.648422 19.008 101.648422 78.848ZM121.536422 53.152C119.336422 53.152 116.872422 52.448 114.584422 50.336L114.584422 32.472C117.136422 29.744 119.424422 28.512 122.064422 28.512 127.256422 28.512 129.632422 32.472 129.632422 40.304 129.632422 49.28 126.024422 53.152 121.536422 53.152ZM168.884633 63.712C174.076633 63.712 179.884633 61.864 184.372633 58.784L180.060633 50.952C176.892633 52.888 173.900633 53.856 170.644633 53.856 164.836633 53.856 160.436633 50.952 159.292633 44.616L185.428633 44.616C185.692633 43.56 185.956633 41.184 185.956633 38.896 185.956633 27.016 179.796633 17.952 167.388633 17.952 156.916633 17.952 146.796633 26.664 146.796633 40.832 146.796633 55.264 156.388633 63.712 168.884633 63.712ZM159.204633 36.08C160.084633 30.536 163.604633 27.808 167.652633 27.808 172.844633 27.808 174.956633 31.24 174.956633 36.08L159.204633 36.08ZM216.232844 63.712C223.712844 63.712 229.344844 60.632 233.920844 55.352L229.872844 50.776C226.176844 54.824 222.040844 57.288 216.496844 57.288 205.584844 57.288 198.632844 48.136 198.632844 33.616 198.632844 19.272 205.848844 10.296 216.760844 10.296 221.688844 10.296 225.472844 12.496 228.552844 15.752L232.512844 11C229.168844 7.216 223.712844 3.872 216.672844 3.872 201.976844 3.872 191.064844 15.224 191.064844 33.792 191.064844 52.624 201.800844 63.712 216.232844 63.712ZM241.229055 62.656 248.445055 62.656 248.445055 31.68C252.757055 27.368 255.749055 25.08 260.149055 25.08 265.781055 25.08 268.245055 28.512 268.245055 36.52L268.245055 62.656 275.461055 62.656 275.461055 35.552C275.461055 24.64 271.413055 18.832 262.437055 18.832 256.541055 18.832 252.229055 22 248.181055 25.872L248.445055 17.072 248.445055 0 241.229055 0 241.229055 62.656ZM296.233266 63.712C301.601266 63.712 306.353266 60.896 310.401266 57.552L310.665266 57.552 311.281266 62.656 317.265266 62.656 317.265266 36.432C317.265266 25.784 312.865266 18.832 302.393266 18.832 295.529266 18.832 289.545266 21.824 285.585266 24.376L288.401266 29.392C291.745266 27.104 296.233266 24.816 301.161266 24.816 308.201266 24.816 309.961266 30.096 309.961266 35.552 291.745266 37.576 283.737266 42.24 283.737266 51.568 283.737266 59.224 289.105266 63.712 296.233266 63.712ZM298.345266 57.904C294.121266 57.904 290.777266 55.88 290.777266 51.04 290.777266 45.584 295.705266 42.064 309.961266 40.304L309.961266 52.184C305.825266 55.88 302.481266 57.904 298.345266 57.904ZM328.005477 62.656 335.221477 62.656 335.221477 31.68C339.533477 27.368 342.525477 25.08 346.925477 25.08 352.557477 25.08 355.021477 28.512 355.021477 36.52L355.021477 62.656 362.237477 62.656 362.237477 35.552C362.237477 24.64 358.189477 18.832 349.213477 18.832 343.317477 18.832 338.917477 22 334.869477 26.048L334.605477 26.048 333.989477 19.888 328.005477 19.888 328.005477 62.656ZM373.417688 62.656 380.633688 62.656 380.633688 31.68C384.945688 27.368 387.937688 25.08 392.337688 25.08 397.969688 25.08 400.433688 28.512 400.433688 36.52L400.433688 62.656 407.649688 62.656 407.649688 35.552C407.649688 24.64 403.601688 18.832 394.625688 18.832 388.729688 18.832 384.329688 22 380.281688 26.048L380.017688 26.048 379.401688 19.888 373.417688 19.888 373.417688 62.656ZM436.165899 63.712C441.973899 63.712 446.549899 61.688 450.245899 59.312L447.693899 54.56C444.525899 56.584 441.093899 57.904 437.045899 57.904 428.861899 57.904 423.317899 52.096 422.789899 43.032L451.653899 43.032C451.829899 41.976 451.917899 40.392 451.917899 38.896 451.917899 26.664 445.757899 18.832 434.845899 18.832 425.077899 18.832 415.661899 27.368 415.661899 41.36 415.661899 55.352 424.725899 63.712 436.165899 63.712ZM422.701899 37.84C423.581899 29.392 429.037899 24.552 435.021899 24.552 441.709899 24.552 445.581899 29.216 445.581899 37.84L422.701899 37.84ZM467.41011 63.712C469.34611 63.712 470.57811 63.448 471.54611 63.008L470.57811 57.552C469.78611 57.728 469.43411 57.728 468.99411 57.728 467.93811 57.728 466.97011 56.848 466.97011 54.56L466.97011 0 459.75411 0 459.75411 54.032C459.75411 60.28 461.95411 63.712 467.41011 63.712Z"/></g></g></svg>